<svg xmlns="http://www.w3.org/2000/svg" viewBox="0 0 333334 271430" shape-rendering="geometricPrecision" text-rendering="geometricPrecision" image-rendering="optimizeQuality" fill-rule="evenodd" clip-rule="evenodd"><path d="M17320 0h298693c9527 0 17320 7797 17320 17320v236790c0 9523-7798 17320-17320 17320H17320C7797 271430 0 263636 0 254110V17320C0 7794 7793 0 17320 0zm55961 85251h77117v21711h-45819v17622h39193v20442h-39193v41167H73281V85251zm87520 100942V85251h51975c9634 0 17012 822 22087 2491 5099 1645 9211 4723 12336 9187 3125 4488 4676 9963 4676 16401 0 5592-1198 10432-3595 14497-2373 4089-5663 7378-9869 9916-2655 1598-6320 2937-10950 3994 3713 1245 6415 2467 8107 3713 1128 822 2796 2608 4981 5310 2162 2702 3619 4793 4347 6274l15156 29159h-35245l-16659-30781c-2115-3994-3994-6579-5639-7778-2256-1551-4817-2326-7660-2326h-2749v40884h-31298zm31298-59917h13182c1410 0 4182-470 8271-1386 2068-399 3759-1457 5052-3172 1316-1715 1974-3665 1974-5874 0-3266-1034-5780-3102-7519-2068-1762-5944-2631-11654-2631h-13722v20583z"/></svg>