<svg width="85" height="17" viewBox="0 0 85 17" fill="none" xmlns="http://www.w3.org/2000/svg">
    <path d="M7.80976 12.917C7.80976 13.1032 7.77396 13.2786 7.70234 13.4434C7.63073 13.6081 7.52689 13.7585 7.39082 13.8945C7.16881 14.1165 6.86087 14.292 6.46699 14.4209C6.07311 14.5426 5.6112 14.6035 5.08125 14.6035C4.74466 14.6035 4.40449 14.5677 4.06074 14.4961C3.71699 14.4245 3.40547 14.3027 3.12617 14.1309C2.83971 13.959 2.5998 13.7334 2.40644 13.4541C2.22025 13.1748 2.11282 12.8311 2.08418 12.4229H0.0968742C0.0968742 12.917 0.207877 13.3932 0.429882 13.8516C0.659049 14.3099 0.988476 14.7109 1.41816 15.0547C1.84069 15.4056 2.3599 15.6885 2.97578 15.9033C3.59167 16.111 4.29349 16.2148 5.08125 16.2148C5.76875 16.2148 6.40254 16.1325 6.98262 15.9678C7.56269 15.8031 8.06042 15.5703 8.47578 15.2695C8.89115 14.9688 9.21341 14.6071 9.44258 14.1846C9.67891 13.762 9.79707 13.293 9.79707 12.7773C9.79707 12.2975 9.69323 11.875 9.48555 11.5098C9.28503 11.1445 8.99141 10.8223 8.60469 10.543C8.21797 10.2708 7.74173 10.0381 7.17598 9.84473C6.61022 9.64421 5.96927 9.46875 5.25312 9.31836C4.70885 9.21094 4.25768 9.09993 3.89961 8.98535C3.5487 8.87077 3.2694 8.74186 3.06172 8.59863C2.84687 8.4554 2.69648 8.29427 2.61055 8.11523C2.52461 7.9362 2.48164 7.7321 2.48164 7.50293C2.48164 7.28092 2.53535 7.06608 2.64277 6.8584C2.75019 6.65072 2.91133 6.4681 3.12617 6.31055C3.33385 6.15299 3.59525 6.02767 3.91035 5.93457C4.23262 5.84147 4.60501 5.79492 5.02754 5.79492C5.43574 5.79492 5.80098 5.85221 6.12324 5.9668C6.45267 6.08138 6.73197 6.23177 6.96113 6.41797C7.1903 6.60417 7.36934 6.81901 7.49824 7.0625C7.62715 7.29883 7.6916 7.54232 7.6916 7.79297H9.67891C9.67891 7.28451 9.5679 6.81185 9.3459 6.375C9.13105 5.93099 8.82311 5.54427 8.42207 5.21484C8.02103 4.88542 7.53405 4.6276 6.96113 4.44141C6.38822 4.25521 5.74368 4.16211 5.02754 4.16211C4.36152 4.16211 3.74922 4.25163 3.19062 4.43066C2.63919 4.6097 2.16295 4.85319 1.76191 5.16113C1.36087 5.46908 1.04935 5.83073 0.827343 6.24609C0.605338 6.6543 0.494335 7.09473 0.494335 7.56738C0.494335 8.0472 0.601757 8.46973 0.816601 8.83496C1.03144 9.19303 1.33581 9.50456 1.72969 9.76953C2.11641 10.0417 2.5819 10.2744 3.12617 10.4678C3.6776 10.6611 4.28633 10.8258 4.95234 10.9619C5.49661 11.0693 5.95137 11.1911 6.3166 11.3271C6.68184 11.4561 6.97545 11.5993 7.19746 11.7568C7.41947 11.9144 7.57702 12.0898 7.67012 12.2832C7.76322 12.4694 7.80976 12.6807 7.80976 12.917ZM10.6504 10.0811V10.3174C10.6504 11.1553 10.7722 11.9323 11.0157 12.6484C11.2592 13.3646 11.6101 13.9876 12.0684 14.5176C12.5196 15.0475 13.071 15.4629 13.7227 15.7637C14.3815 16.0645 15.1228 16.2148 15.9463 16.2148C16.7627 16.2148 17.4968 16.0645 18.1485 15.7637C18.8002 15.4629 19.3552 15.0475 19.8135 14.5176C20.2647 13.9876 20.612 13.3646 20.8555 12.6484C21.099 11.9323 21.2207 11.1553 21.2207 10.3174V10.0811C21.2207 9.24316 21.099 8.46615 20.8555 7.75C20.612 7.02669 20.2647 6.40007 19.8135 5.87012C19.3552 5.34017 18.7966 4.9248 18.1377 4.62402C17.486 4.31608 16.7484 4.16211 15.9248 4.16211C15.1084 4.16211 14.3744 4.31608 13.7227 4.62402C13.071 4.9248 12.5196 5.34017 12.0684 5.87012C11.6101 6.40007 11.2592 7.02669 11.0157 7.75C10.7722 8.46615 10.6504 9.24316 10.6504 10.0811ZM12.6377 10.3174V10.0811C12.6377 9.5153 12.7058 8.97461 12.8418 8.45898C12.9779 7.9362 13.1856 7.47786 13.4649 7.08398C13.737 6.6901 14.0772 6.37858 14.4854 6.14941C14.8936 5.91309 15.3734 5.79492 15.9248 5.79492C16.4763 5.79492 16.9561 5.91309 17.3643 6.14941C17.7797 6.37858 18.127 6.6901 18.4063 7.08398C18.6784 7.47786 18.8825 7.9362 19.0186 8.45898C19.1618 8.97461 19.2334 9.5153 19.2334 10.0811V10.3174C19.2334 10.8903 19.1654 11.4382 19.0293 11.9609C18.8933 12.4766 18.6892 12.9313 18.417 13.3252C18.1377 13.7191 17.7904 14.0306 17.375 14.2598C16.9668 14.4889 16.4906 14.6035 15.9463 14.6035C15.3949 14.6035 14.9115 14.4889 14.4961 14.2598C14.0808 14.0306 13.737 13.7191 13.4649 13.3252C13.1856 12.9313 12.9779 12.4766 12.8418 11.9609C12.7058 11.4382 12.6377 10.8903 12.6377 10.3174ZM28.5181 4.16211C27.6731 4.16211 26.9175 4.34831 26.2515 4.7207C25.5927 5.08594 25.0269 5.58724 24.5543 6.22461L24.5435 5.93457L24.4576 4.37695H22.567V16H24.565V8.54492C24.6939 8.18685 24.855 7.86458 25.0484 7.57812C25.2489 7.28451 25.4817 7.03743 25.7466 6.83691C26.0403 6.60775 26.384 6.43587 26.7779 6.32129C27.1718 6.19954 27.6122 6.13867 28.0992 6.13867C28.4787 6.13867 28.8404 6.16016 29.1841 6.20312C29.5351 6.23893 29.9039 6.2998 30.2906 6.38574L30.5591 4.44141C30.3586 4.35547 30.0578 4.28743 29.6568 4.2373C29.2629 4.18717 28.8834 4.16211 28.5181 4.16211ZM32.2199 1.5625H30.2218V4.37695H27.1711V5.91309H30.2218V12.2295C30.2218 12.9456 30.3149 13.5579 30.5011 14.0664C30.6945 14.5677 30.9559 14.9759 31.2853 15.291C31.6147 15.6133 32.0015 15.8496 32.4455 16C32.8966 16.1432 33.38 16.2148 33.8957 16.2148C34.2036 16.2148 34.5115 16.2005 34.8195 16.1719C35.1346 16.1432 35.4318 16.1003 35.7111 16.043C35.9904 15.9928 36.2482 15.932 36.4845 15.8604C36.7209 15.7816 36.9214 15.6921 37.0861 15.5918L36.8068 14.1846C36.6851 14.2132 36.5275 14.249 36.3341 14.292C36.1479 14.3278 35.9474 14.3636 35.7326 14.3994C35.5106 14.4352 35.285 14.4674 35.0558 14.4961C34.8267 14.5176 34.6046 14.5283 34.3898 14.5283C34.0962 14.5283 33.8169 14.4925 33.5519 14.4209C33.2941 14.3493 33.0649 14.224 32.8644 14.0449C32.6639 13.873 32.5063 13.6403 32.3918 13.3467C32.2772 13.0531 32.2199 12.6807 32.2199 12.2295V5.91309H36.6457V4.37695H32.2199V1.5625ZM38.0692 4.37695V6.10645H42.0223V14.2812H38.0692V16H47.8016V14.2812H44.0096V4.37695H38.0692ZM41.7645 1.32617C41.7645 1.64844 41.8612 1.91699 42.0546 2.13184C42.2551 2.34668 42.5559 2.4541 42.9569 2.4541C43.3508 2.4541 43.648 2.34668 43.8485 2.13184C44.049 1.91699 44.1493 1.64844 44.1493 1.32617C44.1493 1.14714 44.1206 0.982422 44.0634 0.832031C44.0061 0.681641 43.9201 0.556315 43.8055 0.456055C43.7124 0.362956 43.5943 0.291341 43.4511 0.241211C43.3078 0.183919 43.1431 0.155273 42.9569 0.155273C42.7707 0.155273 42.6024 0.183919 42.452 0.241211C42.3088 0.291341 42.1906 0.362956 42.0975 0.456055C41.983 0.563477 41.897 0.692383 41.8397 0.842773C41.7896 0.993164 41.7645 1.1543 41.7645 1.32617ZM55.0668 4.16211C54.2217 4.16211 53.4662 4.34831 52.8002 4.7207C52.1413 5.08594 51.5756 5.58724 51.1029 6.22461L51.0922 5.93457L51.0062 4.37695H49.1156V16H51.1137V8.54492C51.2426 8.18685 51.4037 7.86458 51.5971 7.57812C51.7976 7.28451 52.0303 7.03743 52.2953 6.83691C52.5889 6.60775 52.9327 6.43587 53.3266 6.32129C53.7204 6.19954 54.1609 6.13867 54.6479 6.13867C55.0274 6.13867 55.3891 6.16016 55.7328 6.20312C56.0837 6.23893 56.4525 6.2998 56.8393 6.38574L57.1078 4.44141C56.9073 4.35547 56.6065 4.28743 56.2055 4.2373C55.8116 4.18717 55.432 4.16211 55.0668 4.16211ZM54.0673 15.0762C54.0673 15.3698 54.164 15.6204 54.3574 15.8281C54.5507 16.0286 54.8157 16.1289 55.1523 16.1289C55.4889 16.1289 55.7574 16.0286 55.958 15.8281C56.1656 15.6204 56.2695 15.3698 56.2695 15.0762C56.2695 14.7754 56.1692 14.5176 55.9687 14.3027C55.7682 14.0879 55.4961 13.9805 55.1523 13.9805C54.8086 13.9805 54.54 14.0879 54.3466 14.3027C54.1604 14.5176 54.0673 14.7754 54.0673 15.0762ZM62.1712 4.37695V5.52637H66.2855V14.8506H62.1712V16H71.5277V14.8506H67.5638V4.37695H62.1712ZM65.9095 1.19727C65.9095 1.45508 65.9847 1.67708 66.1351 1.86328C66.2855 2.04948 66.5326 2.14258 66.8763 2.14258C67.2201 2.14258 67.4671 2.04948 67.6175 1.86328C67.7751 1.67708 67.8539 1.45508 67.8539 1.19727C67.8539 1.05404 67.8324 0.921549 67.7894 0.799805C67.7536 0.67806 67.6892 0.574219 67.5961 0.488281C67.5244 0.402344 67.4278 0.33431 67.306 0.28418C67.1843 0.234049 67.041 0.208984 66.8763 0.208984C66.7116 0.208984 66.5684 0.234049 66.4466 0.28418C66.3249 0.33431 66.2246 0.402344 66.1459 0.488281C66.0599 0.574219 65.999 0.681641 65.9632 0.810547C65.9274 0.932292 65.9095 1.0612 65.9095 1.19727ZM73.9881 10.0166V10.3604C73.9881 11.1553 74.1062 11.9072 74.3426 12.6162C74.5789 13.3252 74.9191 13.9447 75.3631 14.4746C75.8071 15.0117 76.3514 15.4378 76.9959 15.7529C77.6404 16.0609 78.3709 16.2148 79.1873 16.2148C79.9965 16.2148 80.7199 16.0573 81.3572 15.7422C82.0018 15.4271 82.5424 15.0046 82.9793 14.4746C83.4233 13.9375 83.7635 13.318 83.9998 12.6162C84.2361 11.9072 84.3543 11.1553 84.3543 10.3604V10.0166C84.3543 9.22168 84.2361 8.46973 83.9998 7.76074C83.7635 7.05176 83.4233 6.43229 82.9793 5.90234C82.5353 5.36523 81.991 4.94271 81.3465 4.63477C80.7091 4.31966 79.9822 4.16211 79.1658 4.16211C78.3494 4.16211 77.6225 4.31966 76.9852 4.63477C76.3478 4.94987 75.8071 5.3724 75.3631 5.90234C74.9191 6.43945 74.5789 7.0625 74.3426 7.77148C74.1062 8.48047 73.9881 9.22884 73.9881 10.0166ZM75.2664 10.3604V10.0166C75.2736 9.40788 75.3595 8.81706 75.5242 8.24414C75.6961 7.67122 75.9467 7.16634 76.2762 6.72949C76.6056 6.28548 77.0102 5.93099 77.49 5.66602C77.977 5.40104 78.5356 5.26855 79.1658 5.26855C79.796 5.26855 80.351 5.40104 80.8309 5.66602C81.3178 5.93099 81.726 6.28548 82.0555 6.72949C82.3849 7.16634 82.6355 7.67122 82.8074 8.24414C82.9793 8.81706 83.0688 9.40788 83.076 10.0166V10.3604C83.0688 10.9762 82.9793 11.5706 82.8074 12.1436C82.6427 12.7165 82.3956 13.2249 82.0662 13.6689C81.7368 14.1058 81.3322 14.4567 80.8523 14.7217C80.3725 14.9867 79.8175 15.1191 79.1873 15.1191C78.5499 15.1191 77.9878 14.9867 77.5008 14.7217C77.0138 14.4567 76.6056 14.1058 76.2762 13.6689C75.9467 13.2249 75.6961 12.7165 75.5242 12.1436C75.3595 11.5706 75.2736 10.9762 75.2664 10.3604Z" fill="#5A90FF"/>
</svg>
